<?xml version="1.0" encoding="utf-8"?>
<!-- Generator: Adobe Illustrator 24.1.3, SVG Export Plug-In . SVG Version: 6.00 Build 0)  -->
<svg version="1.1" id="Layer_1" xmlns="http://www.w3.org/2000/svg" xmlns:xlink="http://www.w3.org/1999/xlink" x="0px" y="0px"
	 viewBox="0 0 120 85" style="enable-background:new 0 0 120 85;" xml:space="preserve">
<style type="text/css">
	.st0{fill-rule:evenodd;clip-rule:evenodd;fill:url(#SVGID_1_);}
	.st1{fill-rule:evenodd;clip-rule:evenodd;fill:url(#SVGID_2_);}
	.st2{fill-rule:evenodd;clip-rule:evenodd;fill:url(#SVGID_3_);}
	.st3{fill-rule:evenodd;clip-rule:evenodd;fill:#7991C1;}
	.st4{fill:#506485;}
	.st5{fill:#000200;}
	.st6{fill:#7991C1;}
</style>
<g>
	<g>
		<linearGradient id="SVGID_1_" gradientUnits="userSpaceOnUse" x1="60" y1="85.5794" x2="60" y2="-2.550000e-04">
			<stop  offset="0.0268" style="stop-color:#EDF0F7"/>
			<stop  offset="0.6741" style="stop-color:#E6EBF4"/>
			<stop  offset="0.7451" style="stop-color:#E2E8F2"/>
			<stop  offset="0.8086" style="stop-color:#D8DFEE"/>
			<stop  offset="0.8692" style="stop-color:#C5D0E6"/>
			<stop  offset="0.928" style="stop-color:#ACBCDB"/>
			<stop  offset="0.985" style="stop-color:#8BA1CD"/>
			<stop  offset="1" style="stop-color:#8199C9"/>
		</linearGradient>
		<rect class="st0" width="120" height="85"/>
		<linearGradient id="SVGID_2_" gradientUnits="userSpaceOnUse" x1="60" y1="59.6657" x2="60" y2="21.4067">
			<stop  offset="0.0268" style="stop-color:#EDF0F7"/>
			<stop  offset="0.4911" style="stop-color:#D3DCEE"/>
			<stop  offset="1" style="stop-color:#CBD3E6"/>
		</linearGradient>
		<path class="st1" d="M120,33.38c-0.23-0.03-0.49-0.06-0.95-0.2c-1.93-0.57-2.7-1.74-4.41-2.45c-1.25-0.52-1.46-0.26-2.75-0.49
			c-1.71-0.31-1.72-1.27-2.66-2c-1.37-1.05-1.46-0.19-2.61-0.51c-1.12-0.31-1.44-0.95-2.8-1.19c-1.53-0.27-1.7,0.17-3.02-0.7
			c-1.26-0.82-1.81-1.88-3.7-2.45c-0.84-0.26-1.57-0.02-2.23-0.56c-1.15,0.34-0.83,1.77-2.23,1.74c-1.77-0.04-2.5-2.73-3.95-3.16
			c-0.13,0.17-0.48,0.28-0.62,0.44c-0.26-0.09-0.91-0.09-1.17-0.19c-1.36,1.57-3.07,3.04-5.03,4.35c-0.28,0.19-0.88,0.34-1.22,0.58
			c-0.07,0.26-0.25,0.49-0.52,0.7c-0.64,0.36-1.34,0.26-1.84,0.46c-0.68,0.28-6.13,5.31-7.25,3.47c-0.77,0.14-0.8,0.56-1.59,0.69
			c-0.13-0.43-0.36-0.85-0.98-1.13c-1.9,1.04-3.77,2.24-5.49,3.35c-1.84,1.18-2.5,2.81-5.72,2.7c-1.98-0.07-1.77-0.3-3.13-0.98
			c-1.42-0.7-2.34-0.11-3.94-0.54c-2.06-0.56-0.99-2.29-3.66-1.26c-1.19,0.46-2.12,1.49-3.5,1.83c-1.59,0.38-0.72,0.09-1.76-0.27
			c-1.47-0.5-2.38-1.72-4.14-1.97c-2.92-0.42-2.51,1.17-3.22,2.27c-0.33,0.5-1.29,2.08-2.62,1.95c-0.75-0.07-1.44-1.43-1.79-1.78
			c-0.74-0.74-1.64-1.14-2.54-1.69c-1.34-0.81-2.52-3.55-4.61-3.72c-1.75-0.14-1.95,1.37-3.48,1.23c-1.07-0.1-2.89-2.39-3.66-2.91
			c-0.93-0.62-1.85-1.62-2.81-2.15c-0.72-0.4-1.85-0.82-2.59-1.04c-0.55-0.16-0.53-0.34-1.23-0.44c-0.2-0.03-0.83,0.15-1.35-0.03
			c-0.66,0.49-1.19,1.11-1.9,1.49c-0.25-0.31-0.6-0.51-1.25-0.52c-0.14,0.6-0.82,3.48-2.25,3.14c-0.05-0.14-0.1-0.28-0.15-0.41
			C1.07,28.92,0.52,29.13,0,29.51v27.42c0.58,0.01,1.16,0.01,1.74,0.01c4.76-0.01,8.87,0.31,13.34,1.23
			c3.77,0.78,7.8,0.46,11.8,0.48c2.56,0.01,5.5,0.01,7.93,0.48c1.12,0.22,1.53,0.44,2.76,0.5c4.35,0.22,9.81-0.67,13.83-1.43
			c1.99-0.37,4.04-0.23,6.25-0.28c4.11-0.08,8.09-0.51,12.25-0.51c4.11,0,8.54,0.41,12.6,0.27c4.47-0.16,8.2-1.7,12.81-1.74
			c4.05-0.03,8.06,0.46,12.11,0.26c2.28-0.11,4.28-0.37,6.62-0.21c1.72,0.12,3.3,0.38,5.03,0.44c0.32,0.01,0.64,0.01,0.95,0.01
			V33.38z"/>
		<linearGradient id="SVGID_3_" gradientUnits="userSpaceOnUse" x1="60" y1="68.4316" x2="60" y2="27.0889">
			<stop  offset="0" style="stop-color:#FFFFFF"/>
			<stop  offset="1" style="stop-color:#8199C9"/>
		</linearGradient>
		<polygon class="st2" points="120,32.27 119.57,31.82 118.05,31.47 117.21,30.1 115.77,29.62 114.34,29.09 113.77,27.78 
			111.93,27.09 110.45,28.19 110.21,29.82 109.36,31.21 107.92,32.12 106.45,33.02 105.31,34.06 104.44,35.31 103.22,34.41 
			100.86,35.13 99.55,36.26 97.88,37.34 96.79,37.67 95.03,36.94 93.7,37.31 92.83,37.62 92.21,39.29 90.53,39.52 90.24,41.12 
			88.42,41.12 86.84,41.2 85.46,42.08 84.5,41.15 83.32,40.14 80.69,41.1 78.77,40.65 77.03,40.22 74.88,40.19 73.89,39.01 
			72.74,38.21 71.08,39 69.08,39.27 67.33,39.53 66.36,41.02 64.7,41.37 63.16,40.8 61.39,39.8 59.67,40.76 58.34,41.78 
			57.23,42.77 55.31,42.24 53.98,42.25 52.21,42.25 50.43,42.75 48.98,43.85 46.71,43.2 44.89,43.33 43.47,42.2 41.36,42.05 
			39.51,41.79 37.64,42.5 35.8,41.53 33.84,42.15 32.39,40.42 30.32,39.27 28.37,39.91 26.51,39.16 24.7,39.49 22.88,40.07 
			21.01,39.99 19.42,39.08 18.51,37.82 16.48,38.4 14.64,38.08 14.05,36.21 12.06,36.04 11.79,34.21 9.28,34.4 9.04,32.29 
			8.02,30.98 6.16,29.78 4.41,30.97 4.35,32.81 2.93,33.68 1.98,34.81 1.51,36.26 0,36.57 0,66.6 1.03,66.97 2.82,66.87 4.6,66.79 
			6.39,66.75 8.17,66.8 9.89,67.43 11.73,66.86 13.49,67.13 15.19,67.25 16.85,68.33 18.59,67.44 20.3,68.02 22.01,67.05 
			23.73,68.03 25.44,67.2 27.15,67.43 28.88,68.25 30.6,68.43 32.31,67.29 34.02,67.72 35.73,67.46 37.44,67.34 39.15,67.36 
			40.86,68.02 42.57,67.11 44.29,68.39 45.99,67.12 47.72,68.02 49.41,68.42 51.03,67 52.72,67.32 54.43,67.82 56.11,67.76 
			57.73,67.06 59.47,67.8 61.08,66.92 62.81,67.69 64.57,67.19 66.24,66.09 68.08,66.49 69.73,65.57 71.66,66.33 73.43,66.17 
			75.24,66.19 76.96,65.7 78.77,65.75 80.52,65.51 82.07,63.94 83.88,64.19 85.71,64.73 87.41,64.31 89.19,64.61 90.93,64.52 
			92.66,64.37 94.34,63.43 96.1,63.57 97.82,62.94 99.57,62.7 101.31,62.54 103.1,63.69 104.84,63.58 106.59,64.02 108.33,63.37 
			110.08,63.25 111.83,63.78 113.58,63.01 115.33,62.91 117.07,63.71 118.82,63.4 120,63.36 		"/>
		<polygon class="st3" points="120,85 120,50 119.29,51.76 116.32,54.76 110.95,54.93 107.17,56.11 103.29,53.83 98.6,54.1 
			92.78,55.09 88.56,52.75 84.63,49.65 81.37,51.18 77.51,51.63 73.39,52.57 71.82,55.35 67.5,54.27 63.43,54.19 61.71,54.62 
			58.05,54.94 55.15,56.75 50.91,56.91 45.95,55.89 42.41,58.8 38.02,58.43 34.82,57.82 30.52,57.74 28.12,55.46 23.62,54.96 
			19.23,56.78 15.5,54.57 12.68,53.73 8.53,52.61 4.45,53.71 0.54,53.15 0,53.12 0,85 		"/>
		<g>
			<g>
				<path class="st4" d="M7.18,56.96c0.76,0.22,0.32-0.04,0.03-0.32c-0.01,0.04-0.03,0.12-0.07,0.26
					C7.21,56.94,7.25,56.98,7.18,56.96z"/>
				<path class="st4" d="M20.08,65.99c0.03,0,0.06,0.01,0.09,0.01c0.22-0.07,0.45-0.13,0.63-0.18c0,0,0,0,0,0
					C20.63,65.86,20.39,65.91,20.08,65.99z"/>
				<path class="st4" d="M31.22,72.95c0.71-2.72,0.24-1.11-0.02-0.19C31.24,72.8,31.25,72.86,31.22,72.95z"/>
				<path class="st4" d="M4.54,47.85c0.35,0,0.62,0,0.11-0.06C4.65,47.79,4.59,47.84,4.54,47.85z"/>
				<path class="st4" d="M0,85h120V58.67c-0.85-0.02-1.52-0.26-2.08-0.23c-0.13,0.01-0.2,0.15-0.32,0.18
					c-0.13,0.03-0.26-0.07-0.32-0.06c-0.17,0.04-0.39,0.33-0.71,0.43c-0.16,0.05-0.41,0.01-0.55,0.06
					c-0.37,0.14-0.71,0.43-0.95,0.49c-0.16,0.04-0.37-0.04-0.47,0c-0.14,0.05-0.13,0.25-0.24,0.31c-0.07,0.04-0.32,0-0.47,0.06
					c-0.19,0.08-0.26,0.31-0.4,0.37c-0.76,0.32-1.49-0.15-2.21-0.12c-0.42,0.02-1.44,0.38-1.74,0.37c-0.19-0.01-0.37-0.26-0.63-0.31
					c-0.71-0.13-1.71,0.22-2.29,0.12c-0.38-0.06-0.72-0.49-1.03-0.68c-0.05-0.03-0.18,0.03-0.24,0c-1.03-0.52-2.06-1.49-3.4-2.15
					c-0.07-0.04-0.24-0.01-0.32-0.06c-0.83-0.49-1.39-1.14-2.21-1.6c-0.3-0.17-0.69-0.2-0.95-0.37c-0.49-0.31-0.66-0.82-1.19-0.92
					c-0.19-0.04-0.39,0.12-0.55,0.12c-0.66,0-1.08-0.43-1.66-0.31c-0.38,0.08-1,0.77-1.5,0.8c-0.48,0.03-1.01-0.24-1.34-0.06
					c-0.38,0.2-0.43,0.72-0.95,0.92c-0.14,0.06-0.28-0.11-0.47-0.06c-0.28,0.06-0.28,0.42-0.63,0.49c-0.25,0.05-1.07-0.24-1.19-0.25
					c-0.17-0.01-0.23,0.16-0.32,0.12c-0.32-0.12-0.6-0.55-0.87-0.74c-0.15-0.1-0.51-0.4-0.71-0.43c-0.26-0.03-1.11,0.34-1.42,0.31
					c-0.25-0.02-0.41-0.26-0.63-0.25c-1.01,0.06-1.14,1.21-1.82,1.48c-0.1,0.04-0.24-0.12-0.32-0.06c-0.11,0.08-0.09,0.29-0.16,0.37
					c-0.24,0.28-0.65,0.49-0.87,0.8c-0.18,0.25-0.22,0.56-0.4,0.74c-0.59,0.6-1.74,1.07-2.37,1.42c-0.21,0.11-0.33,0.34-0.55,0.37
					c-0.26,0.03-1.12-0.36-1.19-0.37c-0.34-0.03-0.65,0.18-0.95,0.18c-0.12,0-0.21-0.18-0.32-0.18c0.02,0-0.16,0.11-0.24,0.12
					c-0.9,0.14-1.09-0.29-1.74-0.37c0.05,0.01-0.1,0.18-0.16,0.18c-0.55,0.04-0.95-0.54-1.42-0.74c-0.09-0.04-0.19,0.07-0.24,0.06
					c-0.2-0.03-0.38-0.22-0.46-0.24c0.03,0.03-0.19,0.18-0.25,0.18c-0.6,0.01-1.04-0.78-1.5-0.92c-0.77-0.25-0.92,0.38-1.27,0.49
					c-0.26,0.08-0.64-0.03-0.95,0c-0.63,0.06-1.35,0.34-1.74,0.37c-0.14,0.01-0.25-0.09-0.4-0.06c-0.67,0.15-0.58,0.38-0.95,0.68
					c-0.02,0.02-0.25-0.02-0.4,0.06c-0.15,0.09-0.16,0.33-0.24,0.37c-0.27,0.13-0.72,0.05-0.95,0.18c-0.17,0.1-0.14,0.41-0.32,0.49
					c-0.16,0.08-0.29-0.16-0.55-0.12c-0.02,0-0.05,0.23-0.08,0.25c-0.11,0.06-0.21-0.12-0.32-0.06c-0.03,0.02-0.08,0.29-0.24,0.37
					c-0.12,0.06-0.33,0.01-0.4,0.06c-0.49,0.38-0.94,1.35-1.58,1.66c-0.6,0.3-0.68-0.13-1.03-0.18c-0.13-0.02-0.2,0.2-0.4,0.18
					c-0.16-0.01-0.26-0.29-0.48-0.31c0.11,0.01-0.64,0.17-0.71,0.18c-0.46,0.12-0.8,0.49-1.27,0.62c-0.13,0.03-0.35-0.02-0.47,0
					c-0.87,0.14-1.67,1.02-2.21,1.42c-0.14,0.1-0.47,0.07-0.55,0.12c-0.18,0.12-0.24,0.36-0.4,0.49c-0.89,0.74-2.87,1.83-4.67,1.97
					c-0.64,0.05-1.14-0.19-1.42-0.18c-0.56,0.02-0.86,0.48-1.27,0.62c-0.26,0.09-0.48,0.03-0.55,0.06
					c-0.14,0.07-0.19,0.29-0.32,0.37c-0.26,0.15-1.55,0.63-1.74,0.68c-0.12,0.03-0.36-0.04-0.47,0c-0.19,0.08-0.35,0.38-0.71,0.49
					c-0.17,0.05-0.39,0-0.55,0.06c-0.38,0.16-0.61,0.53-0.87,0.68c-0.73,0.42-1.8,0.53-2.61,1.05c-0.25,0.16-0.38,0.45-0.63,0.62
					c-0.14,0.1-0.38,0.09-0.55,0.18c-1.03,0.58-1.71,1.5-2.37,1.29c-0.18-0.06-0.28-0.54-0.32-0.55c-0.37-0.12-0.21,0.14-0.4,0.19
					c-0.13,0.03-0.21-0.11-0.32-0.06c-0.41,0.19,0.03,0.36,0,0.55c0.01-0.07-0.32,0.25-0.24,0.25c-0.24,0.02-0.02-0.29,0-0.25
					c-0.22-0.37-0.73,0.05-1.11-0.25c0,0,0.06-0.22,0.14-0.5c-0.09-0.12-0.37-0.09-0.61-0.17c-0.18-0.06,0.1-0.3-0.24-0.19
					c-0.31,0.11-0.04,0.73-0.16,0.8c0.01,0-0.44-0.2-0.47-0.25c-0.12-0.17,0.4-0.23-0.16-0.43c0.23,0.08-0.31,0.06-0.16,0
					c-0.17,0.06-0.07,0.24-0.16,0.25c-0.28,0.01-0.2-0.24-0.4-0.18c-0.2,0.05,0.25,0.51-0.24,0.25c-0.25-0.13,0.13,0,0.08-0.31
					c0.01,0.05-0.12-0.24-0.16-0.43c-0.06-0.27-0.09-0.69-0.08-0.68c-0.2-0.19-1.66,0.18-1.34-0.25c0.18-0.24-0.17-0.07-0.32-0.18
					c-0.06-0.05,0.09-0.17,0.08-0.18c-0.16-0.31-0.39,0.18-0.4,0.18c-0.22,0.09-0.18-0.19-0.4-0.06c-0.21,0.12,0.01,0.28-0.24,0.31
					c0.06-0.01-0.46-0.17-0.47-0.18c-0.1-0.07-0.17-0.4-0.24-0.43c-0.09-0.04-0.51,0.01-0.63,0c-0.38-0.03-0.18,1.02-0.55,1.11
					c-0.38,0.09-0.74-0.29-0.78-0.36C23.15,71.4,23,71.49,23,71.48c-0.1-0.31,0.41-0.15,0.47-0.31c0.05-0.12-0.25-0.24-0.16-0.43
					c-0.03,0.06,0.27,0.15,0.32,0.12c0.3-0.18-0.23-0.38-0.24-0.49c0,0.04,0.23-0.04,0.24-0.06c0.04-0.08-0.24-0.21-0.24-0.25
					c0.01-0.05,0.31,0.09,0.32,0c0,0.01-0.25-0.05-0.24-0.18c0-0.01,0.16,0.02,0.22,0.05c-0.04-0.09-0.11-0.42-0.08-0.38
					c-0.16-0.28-0.78-0.53-0.78-0.65c0-0.02,0.3-0.26,0.24-0.31c-0.25-0.19-0.15,0.3-0.32,0c0.01,0.02,0.16-0.02,0.16-0.06
					c-0.02-0.12-0.2-0.06-0.24-0.12c-0.06-0.1,0.14-0.16,0.08-0.25c-0.15-0.22-0.32,0.07-0.16-0.18c-0.13,0.21,0.27-0.02,0.16-0.06
					c0.03,0.01,0.06,0.02,0.08,0.03c0-0.04-0.01-0.09,0-0.15c0.03-0.29,0.13,0.34,0.16,0.12c0.04-0.29,0.07-1.05,0.08-1.05
					c-0.09-0.12-1.09-0.49-1.11-0.49c-0.14-0.01-0.49,0.29-0.79,0.25c-0.12-0.02-0.36-0.27-0.55-0.31c-0.48-0.1-0.87,0.12-1.11,0
					c-0.08-0.04,0.07-0.11,0.3-0.2c-0.03-0.03-0.04-0.05-0.06-0.05c0.12-0.03,0.22-0.05,0.32-0.08c-0.1-0.01-0.19-0.05-0.16-0.23
					c-0.01,0.06,0.55-0.43,0.55-0.43c0.22,0.04,0.26,0.32,0.33,0.49c0.06-0.01,0.1-0.02,0.14-0.03c0.01,0,0.03-0.01,0.04-0.01
					c0.04-0.1,0.07-0.19,0.04-0.14c0.24-0.37,0.15-0.09,0.09,0.11c0.03-0.01,0.03-0.01,0,0c-0.02,0.07-0.03,0.14-0.02,0.14
					c0.17,0.04,0.15-0.46,0.4-0.49c0.26-0.04,0.27,0.36,0.47,0.43c0.12,0.04,0.16,0.01,0.24,0.06c0.52,0.34-0.16-0.14,0.16-0.31
					c-0.1,0.05,0.21,0.29,0.32,0.31c-0.07-0.01-0.05-0.26,0.24-0.25c0.32,0.02,0.1,0.4,0.24,0.12c0.03-0.05-0.31-0.4-0.32-0.49
					c0,0.04,0.23-0.04,0.24-0.06c-0.02,0.04-0.08-0.11-0.08-0.12c-0.01,0.03,0.14,0.1,0.16,0.06c0.15-0.28-0.12-0.61-0.32-0.68
					c-0.34-0.11,0.2-0.05,0-0.18c-0.03-0.02-0.65,0.21-0.79,0.18c-0.02,0-0.01-0.17-0.08-0.18c0.03,0.01-0.22,0.14-0.24,0.12
					c-0.21-0.18,0.08-0.43,0.08-0.49c0,0.01-0.27,0.1-0.24,0c0.05-0.18,0.25-0.45,0.54-0.55c-0.06,0.03,0.38,0.01,0.49,0
					c0,0,0-0.01,0-0.01c0.04,0,0.03,0,0,0.01c0.02,0.03,0.19,0.18,0.24,0.12c0.21-0.29-0.2,0.04-0.47-0.25
					c-0.17-0.18,0.29-0.05,0.16-0.25c-0.06-0.09-0.42-0.14-0.55-0.25c-0.13-0.1-0.31-0.49-0.37-0.55c-0.02,0-0.02,0-0.02,0
					c0-0.01,0.01-0.01,0.02,0c0.06-0.01,0.21-0.07,0.34-0.14c-0.04,0-0.08-0.03-0.13-0.11c-0.11-0.2,0.43-0.05,0.24-0.31
					c0,0-0.5-0.02-0.4-0.06c-0.34,0.11-0.18,0.52-0.55,0.55c-0.07,0.01-0.08-0.39-0.08-0.55c0,0-0.01-0.02,0-0.06c0,0,0,0.03,0,0.06
					c0.02,0.01,0.11-0.24,0.09-0.25c0.06,0,0.31,0.26,0.47,0c0.03-0.04-0.4-0.14-0.4-0.12c-0.11-0.17,0.35-0.15,0.24-0.31
					c0.03,0.04-0.67-0.01-0.32-0.18c0.18-0.09,0.7,0.33,0.79,0.06c0.04-0.1-0.61-0.34-0.57-0.52c0-0.01,0-0.02,0.01-0.03
					c-0.01,0.01-0.01,0.02-0.01,0.03c0,0.08,0.38-0.06,0.52-0.16c-0.14,0-0.52-0.21-0.58-0.3c-0.27-0.38,0.26,0.21,0.32,0
					c0.02-0.07-0.2-0.08-0.24-0.12c-0.1-0.14-0.01-0.4,0.16-0.37c0.27,0.04-0.29-0.21-0.08-0.37c0.35-0.27-0.22-0.07-0.4-0.18
					c0.04,0.03,0.18-0.11,0.16-0.12c-0.08-0.07-0.44-0.09-0.47-0.18c-0.05-0.15,0.16-0.27,0.08-0.49c0.06,0.16-0.21,0.02-0.08-0.12
					c-0.14,0.16,0.62-0.13,0.55-0.25c-0.1-0.19-0.51,0.2-0.55-0.12c0.01,0.11,0.73-0.34,0.4-0.37c-0.08-0.01-0.65,0.47-0.16,0.06
					c0.32-0.26-0.04-0.08-0.16-0.06c-0.21,0.02-0.16-0.13-0.08-0.25c0.21-0.3-0.51,0.23-0.55,0.25c-0.19,0.06-0.68,0.07-0.71-0.12
					c0.01,0.07,0.54-0.38,0.32-0.37c-0.08,0-0.13,0.02-0.17,0.04c-0.04,0.22-0.15,0.08,0,0c0.01-0.04,0.01-0.09,0.01-0.16
					c0,0.07-0.22-0.19-0.29-0.28c-0.06,0.05-0.34,0.15-0.34,0.15c-0.11,0.1-0.37,0.82-0.32,0.8c-0.43,0.14-0.11-0.3-0.24-0.43
					c-0.02-0.01-0.24,0.13-0.24,0.12c-0.03-0.37,0.55-1.01,0-0.43c-0.28,0.29-0.05,0.74-0.55,0.31c-0.69-0.59,0.12,0.21,0,0.43
					c-0.07,0.13-0.14-0.15-0.4-0.06c-0.1,0.04-0.22,0.3-0.24,0.31c-0.05,0.02-0.12-0.16-0.32-0.12c-0.51,0.1,0.58,0.44,0.55,0.49
					c-0.02,0.03-0.29-0.03-0.32,0c-0.33,0.28-0.82,0.08-0.24,0.31c-0.07-0.03-0.09,0.12-0.08,0.12c0.39,0.05,0.59-0.1,0.55,0.18
					c0-0.01-0.46-0.17-0.55-0.12c0.01-0.01,0.64,0.68,0.63,0.68c0.36,0.2-0.11,0.01-0.08,0.31c-0.02-0.14,0.2-0.08,0.24-0.06
					c-0.03-0.01-0.13,0.09-0.08,0.12c0.34,0.23,0.72-0.06,0.71,0.12c-0.01,0.21-1.09,0.37-0.95,0.43c-0.16-0.06,0.01-0.4,0-0.43
					c-0.05-0.24-0.62-0.73-0.71-0.62c-0.19,0.22,0.45,0.15,0.08,0.31c0.05-0.02-0.52-0.64-0.08,0c0.51,0.74-0.68,0.02-0.63,0.31
					c0.02,0.09,0.29,0.21,0.38,0.14c-0.13,0.14-0.71,0.11-0.7,0.41c0-0.04,0.32,0.15,0.37,0.23c0.09-0.03,0.25-0.08,0.26-0.04
					c0.09,0.29-0.64,0.08-0.85-0.05c0.13,0.07-0.02-0.31-0.14-0.42c-0.07,0.02-0.12,0.08-0.12,0.22c-0.01-0.26,0.05-0.29,0.12-0.22
					c0.08-0.02,0.18-0.01,0.28-0.02c0.43-0.07,0.02-0.17-0.08-0.18c-0.72-0.09-0.15-0.14,0-0.31c0.27-0.31-0.35-0.15-0.62-0.12
					c0.01,0.02-0.01,0.02-0.09,0c0.02,0,0.05,0,0.09,0c-0.03-0.04-0.28-0.17-0.33-0.18c0.11,0.04,0.19-0.12,0.16-0.12
					c0.03,0-0.46,0.05-0.64,0.06c0.06,0.05,0,0.27-0.15,0.18c-0.09-0.06-0.22-0.41-0.28-0.56c-0.02,0.03-0.03,0.03-0.04-0.05
					c0-0.05,0.01-0.02,0.04,0.05c0.05-0.09,0.11-0.43,0.04-0.42c-0.28,0.03-0.21,0.75-0.32,0.86c-0.15,0.15-0.34-0.28-0.47-0.18
					c-0.21,0.15,0.3,0.41,0,0.37c-0.22-0.03-0.27-0.51-0.55-0.43c-0.12,0.03,0.09,0.38,0.19,0.54c0.04,0.02,0.06,0.04,0.05,0.08
					c0,0-0.02-0.03-0.05-0.08c-0.07-0.03-0.2-0.04-0.28-0.04c0.03,0.04-0.06,0.18-0.06,0.18c0.02-0.03-0.28,0.21-0.24,0.31
					c0.03,0.07,0.42,0.23,0.4,0.31c-0.01,0.03-0.25-0.06-0.24-0.06c-0.31,0.12-0.52,1-1.11,0.74c-0.12-0.05,0.48-0.32,0.47-0.37
					c-0.02-0.11-0.32-0.08-0.32-0.18c0.01-0.21,0.23,0,0.24-0.12c0.02-0.19-0.4-0.04-0.08-0.25c0.44-0.28,0.11,0.01-0.08-0.37
					c-0.05-0.1,0.04-0.1,0.1-0.16c0-0.08,0.03-0.3,0.06-0.27c-0.04-0.04-0.8-0.19-0.66-0.24c-0.13,0.04-0.07,0.16-0.15,0.22
					c0,0.02-0.04,0.03-0.14,0.02c0.07,0,0.11-0.01,0.14-0.02c0.01-0.04-0.18-0.12-0.21-0.11c0.03-0.03,0.21-0.04,0.23-0.05
					c0.28-0.19-0.16-0.23-0.16-0.25c0.08-0.22,0.68-0.37,0.24-0.43c-0.29-0.04-0.57,0.74-0.79,0.74c-0.38-0.01-0.27-0.75-0.47-0.8
					c-0.06-0.01-0.02,0.39-0.08,0.62c-0.03,0.11-0.31,0.05-0.32,0.06C8.74,58.65,8.92,58.79,9,58.8c-0.31-0.04-0.66-0.16-0.71-0.43
					c-0.02-0.1-0.13-0.07-0.16-0.12c-0.09-0.19,0.26-0.18,0-0.25c0.19,0.05-0.37,0.1-0.4,0.06c-0.1-0.2,0.94-0.27,0-0.25
					c-0.35,0.01-0.19-0.06-0.47-0.18c0.09,0.04,0.27-0.1,0.24-0.12c-0.17-0.14-0.86,0.32-0.4-0.06c0.38-0.31-0.18-0.1-0.3-0.28
					c0.05,0.06,0.13-0.05,0.21-0.19c-0.11-0.06-0.25-0.15-0.15-0.2c0.02-0.01,0.12,0.04,0.21,0.09c0.05-0.1,0.1-0.2,0.12-0.24
					c-0.03-0.03-0.06-0.07-0.09-0.1c-0.14-0.18,0.36,0.21,0.4,0.18c0.06-0.05-0.06-0.24-0.08-0.25c0.11,0.01,0.62,0.29,0.63,0.18
					c0.02-0.15-0.32-0.15-0.48-0.28c0.08,0.05,0.18,0.03,0.25,0.01c-0.1-0.01-0.03-0.31-0.01-0.3c-0.06-0.11-0.61-0.24,0.01-0.17
					c0.14,0.02,0.29-0.16,0.32-0.12c-0.02-0.02-0.38-0.1-0.4-0.25c0,0.02,0.4-0.07,0.4-0.06c0.02-0.13-0.43-0.07-0.71-0.12
					c-0.05,0-0.11-0.02-0.16-0.06c0.04,0.03,0.09,0.05,0.16,0.06c0.14,0.01,0.29-0.06,0.36-0.1c-0.28,0.11-1.36-0.26-1.39-0.39
					c-0.02-0.14,0.82-0.01,0.79-0.12c-0.03-0.1-0.88-0.19-0.87-0.18c-0.01-0.01,0.28-0.19,0.28-0.24c-0.02-0.01-0.03-0.01-0.04-0.01
					c0.03,0,0.04,0,0.04,0.01c0.06,0.03,0.14,0.1,0.2,0.14c0.01-0.04,0.14-0.08,0.23-0.09c0.48-0.02-0.05-0.08-0.4-0.14
					c-0.07,0.01-0.14,0-0.23-0.05c0.03,0.01,0.12,0.03,0.23,0.05c0.18-0.02,0.26-0.16,0.24-0.17c-0.05-0.03-0.52,0.09-0.55,0
					C6.24,53.88,6.43,54,6.54,53.82c-0.04,0.06,0.14-0.44,0.16-0.37c-0.02-0.08-0.31,0.01-0.24-0.06c0.27-0.24,0.49-0.11,0.79-0.18
					c0.03-0.01-0.17-0.12-0.16-0.12c0.28-0.08,0.21,0.13,0.4,0.06c0.13-0.05-0.07-0.17-0.18-0.25c-0.02,0.01-0.04,0-0.06-0.06
					c0,0.01,0.03,0.03,0.06,0.06c0.04-0.02,0.07-0.16,0.05-0.24c-0.07,0-0.11-0.01-0.11-0.01c0.06-0.06,0.1-0.04,0.11,0.01
					c0.21,0.01,0.63,0.01,0.52-0.13c-0.12-0.15-1.46-0.1-0.47-0.18c0.41-0.04-0.32-0.18-0.08-0.31c0.38-0.21,0.66,0.27,0.55,0
					c-0.03-0.07-0.11-0.1-0.22-0.11c-0.83,0.15-0.33-0.04,0,0c0.02,0,0.04-0.01,0.06-0.01c0.86-0.15-1.09-0.2-0.95-0.12
					c-0.18-0.09-0.22-0.57-0.4-0.68c0.03,0.02-0.12,0.1-0.16,0.06c-0.21-0.23,0.06-0.22,0.19-0.2c-0.04-0.01-0.1-0.02-0.19-0.05
					c-0.07-0.02-0.11,0.11-0.16,0.12c-0.3,0.11,0.15-0.28,0-0.31c-0.21-0.03-0.29,0.27-0.37,0.35c0.04-0.05-0.02-0.16-0.03-0.17
					c-0.2-0.07-0.58,0.46-0.4,0.06c0.21-0.46-0.46-0.06-0.47-0.18c-0.01-0.12,0.4-0.2,0.47-0.49c-0.06,0.25-0.55-0.86,0-0.43
					c0.46,0.36,0.2-0.59,0.24-0.8c0.01-0.03,0.01-0.06,0.01-0.08c-0.08-0.04-0.16-0.09-0.17-0.16c0,0,0.1,0.02,0.2,0.01
					c0.01-0.05,0.02-0.04,0.02,0c0.12-0.01,0.23-0.04,0.25-0.12c-0.02,0.07-0.19,0.01-0.33-0.04c-0.04,0-0.09-0.01-0.14-0.03
					c-0.16-0.1-0.02-0.03,0.14,0.03c0.12-0.01,0.19-0.11-0.14-0.16c-0.79-0.11-0.08,0.05,0-0.18c-0.01,0.02-0.74-0.1-0.63,0
					c-0.07-0.07,0.14-0.17,0.16-0.18c0.27-0.23-0.08-0.15-0.39-0.3c-0.25,0-0.53,0-0.57,0.04c0,0.01,0,0.02,0.01,0.02
					c-0.01-0.01-0.01-0.02-0.01-0.02c0.02-0.09,0.37-0.39,0.46-0.32c-0.11-0.17-0.65-0.74-0.06-0.33c0.16,0.11,0.54,0.19,0.87,0.19
					c-0.07,0,0.22-0.03,0.31,0.04c-0.03-0.11-0.11-0.3-0.15-0.29c0.22-0.06,0.31,0.1,0.47,0.16c-0.01-0.06,0.37-0.22,0.32-0.28
					c-0.17-0.19-1.27-0.17-1.03-0.43c-0.01,0.02,1.39,0.36,0.71,0.06c-0.18-0.08,0.82-0.03,0.63-0.18
					c-0.18-0.15-0.51,0.11-0.55-0.12c0.02,0.09,0.4-0.24,0.4-0.25c0-0.11-0.31-0.16-0.32-0.12c0.01-0.05,0.42-0.39,0.32-0.43
					c-0.08-0.03-0.89,0.22-1.27,0.31c-0.34,0.08-0.56,0.24-0.87,0.18c0.14,0.03,0.51-0.26,0.08-0.18c-0.42,0.08-0.09,0.03-0.08-0.12
					c0,0-0.27-0.7-0.55-0.86c0.01,0-0.08,0.07-0.16,0c0.06,0.06,0.25-0.09,0.24-0.12c-0.06-0.14-0.39,0.07-0.55-0.06
					c0.08,0.07,0.23-0.1,0.24-0.12c0.02-0.08-0.3-0.06-0.43-0.06c-0.04,0.04-0.58,0.25-0.6,0.18c0-0.01,0.73-0.55,0.63-0.62
					c-0.22-0.16-0.49,0.49-0.47,0.12c0-0.16,0.86-0.73,0.71-0.92c-0.1-0.13-0.57,0.73-0.24,0.12c0.05-0.1,0.6-0.32,0.4-0.43
					c-0.04-0.02-0.14,0.07-0.22,0.14c-0.08,0.14-0.14,0.19-0.1-0.02c-0.02,0.1,0.03,0.07,0.1,0.02c0.12-0.21,0.3-0.63,0.29-0.63
					c-0.3-0.08-0.9,1.3-1.11,1.42c-0.13,0.07-0.84,0.1-0.87,0.06c-0.13-0.17,0.62-0.83,0.47-1.05c-0.11-0.15-0.24,0.18-0.24,0.18
					c-0.15-0.25,0.21-0.16,0-0.37c0.1,0.1-0.18,0.09-0.26,0.05c0,0.05,0.03,0.12-0.06,0.13c0.02,0-0.11-0.12-0.16-0.06
					c-0.11,0.12-0.01,0.63-0.16,0.61c0.02,0-0.14-0.19-0.16-0.25c-0.27-0.66-0.32-1.05-0.16-0.12c0.12,0.67-0.48-0.62-0.63-0.62
					c-0.1,0-0.08,0.16-0.05,0.24c0.01,0.01,0.02,0.03,0.02,0.04c0.02,0.02,0.03,0.02,0.03-0.04c0,0.12,0.08,0.04-0.14,0.17v0.27
					c0.02,0.04,0.02,0.07,0,0.1V85z"/>
				<path class="st4" d="M7.55,56.35c-0.02-0.02-0.04-0.04-0.05-0.07C7.5,56.31,7.52,56.33,7.55,56.35z"/>
				<path class="st4" d="M19.88,66.16c0.1-0.03,0.43-0.08,0.42-0.09C20.29,66.01,20.23,66,20.17,66c-0.13,0.04-0.25,0.08-0.35,0.12
					C19.83,66.13,19.85,66.14,19.88,66.16z"/>
			</g>
		</g>
		<g>
			<g>
				<path class="st5" d="M89.13,58.89c-0.07,0.02-0.03-0.01,0.04-0.06c-0.04-0.15-0.06-0.24-0.07-0.29
					C88.81,58.84,88.35,59.13,89.13,58.89z"/>
				<path class="st5" d="M91.7,48.76c-0.53,0.07-0.25,0.07,0.11,0.07C91.75,48.81,91.7,48.76,91.7,48.76z"/>
				<path class="st5" d="M75.8,68.95c0,0.02,0.33,0.07,0.43,0.1c0.03-0.01,0.05-0.03,0.07-0.05c-0.11-0.04-0.23-0.08-0.36-0.13
					C75.87,68.88,75.81,68.89,75.8,68.95z"/>
				<path class="st5" d="M64.71,76.56c-0.02-0.1-0.01-0.17,0.02-0.22C64.47,75.33,63.99,73.55,64.71,76.56z"/>
				<path class="st5" d="M75.3,68.67C75.3,68.68,75.3,68.68,75.3,68.67c0.18,0.05,0.42,0.12,0.63,0.2c0.03,0,0.06,0,0.09-0.01
					C75.71,68.78,75.47,68.72,75.3,68.67z"/>
				<path class="st5" d="M120,85V45.47c-0.13-0.07-0.09-0.09,0-0.12v-0.28c-0.2,0.06-0.43,0.18-0.43,0.15
					c0-0.02-0.28,0.26-0.24,0.27c-0.38-0.1,0.26,0.01,0.08-0.41c-0.08-0.2-0.54,0.11-0.48,0c-0.01,0.02-0.01,0.05-0.01,0.07
					c0,0,0.01,0,0.01,0c0.21,0.11,0.01,0.09-0.01,0c-0.12-0.03-0.46,0.27-0.23,0c0.13-0.15,0.06-0.17-0.03-0.15
					c-0.08,0.05-0.14,0.09-0.13,0.08c0.02-0.03,0.08-0.07,0.13-0.08c0.24-0.17,0.68-0.52,0.11-0.33c-0.03,0.01-0.2,0.07-0.24,0.11
					c0,0.01,0,0.02,0,0.02c0-0.01,0-0.01,0-0.02c0.02-0.09,0.13-0.44,0.16-0.45c-0.01,0.01,0.23,0.1,0.24,0.07
					c0.12-0.3-0.21-0.65-0.24-0.82c-0.04-0.22,0.33-0.35,0.16-0.48c-0.05-0.04-0.4,0.05-0.48,0c-0.29-0.16-0.28-0.68,0.16-0.88
					c0.75-0.34-0.33-0.01-0.32,0c-0.26-0.23,0.15-0.11,0.24-0.27c-0.02,0.04-0.08-0.33-0.02-0.29c-0.14-0.12-0.55-0.02-0.63-0.12
					c-0.18-0.26,0.35-0.02,0.4-0.07c-0.03,0.03-0.16-0.38-0.22-0.51c-0.13,0.08-1.08,0.23-0.66-0.1c0.08-0.06,0.18,0.1,0.24,0.07
					c0.13-0.06,0.04-0.36,0.05-0.42c-0.04,0-0.1,0.03-0.12,0.06c0,0.02,0,0.03-0.01,0.02c0,0,0-0.01,0.01-0.02
					c0.01-0.06,0.02-0.25,0.07-0.18c-0.12-0.15-0.37,0.04-0.48-0.07c-0.12-0.12,0.09-0.25,0-0.48c-0.04-0.1-0.21-0.01-0.16,0.14
					c-0.09-0.24,0.1-0.19,0.08-0.34c0,0.02-0.17-0.27-0.16-0.27c-0.16,0.05-0.28,1.14-0.48,1.29c-0.15,0.11-0.08-0.25-0.16-0.27
					c-0.22-0.05-0.22,0.53-0.4,0.2c-0.02-0.04,0.47-1.79-0.08-1.22c-0.15,0.16,0.12,0.38-0.16,0.61c-0.26,0.21,0.16-0.66-0.24-0.27
					c-0.07,0.07-0.27,0.47-0.32,0.48c-0.16,0.03-0.46-0.63-0.72-0.54c-0.33,0.11,0.3,0.86-0.16,0.48c-0.26-0.22-0.27,0.15,0,0.14
					c-0.24,0.01-0.63-0.21-0.72-0.14c-0.25,0.2,0.17,0.09,0.08,0.34c0.04-0.1-0.55-0.09,0.08,0.27c-0.34-0.19,0.42-0.11,0,0.07
					c-0.16,0.06-0.48-0.2-0.56-0.07c-0.08,0.12,0.35,0.35,0.4,0.41c0.03,0.04-0.19,0.07-0.16,0.14c0.11,0.21,0.4,0.07,0.47,0.24
					c-0.09-0.18-0.5-0.07-0.44,0c0.14,0.02,0.25,0.03,0.29,0.03c-0.18,0.01-0.26-0.01-0.29-0.03c-0.35-0.05-0.89-0.13-0.92-0.11
					c-0.21,0.21,0.53,0.25,0.64,0.41c0.04,0.06-0.4,0.93-0.8,1.09c0.08-0.03-0.13-0.06-0.24-0.06c0.01,0.04,0.02,0.06,0,0.06
					c-0.09-0.04-0.06-0.05,0-0.06c-0.03-0.08-0.1-0.24-0.13-0.32c-0.05-0.02-0.11-0.03-0.11-0.1c0.02-0.49-0.28,0.52-0.4,0.61
					c-0.37,0.29,0.25-0.33,0-0.48c-0.04-0.02-0.18,0.27-0.27,0.46c0.04,0.25,0.04,0.9-0.05,0.83c-0.24-0.17,0.22-0.21,0-0.68
					c0-0.01-0.01-0.02-0.02-0.02c-0.02,0.03-0.03,0.03-0.02-0.01c-0.04-0.01-0.08,0.01-0.11,0.04c0.04,0.1,0.04,0.19-0.01,0.13
					c-0.04-0.04-0.02-0.09,0.01-0.13c-0.04-0.12-0.13-0.27-0.25-0.28c-0.34-0.03-0.23,1.06-0.17,1.03
					c-0.06,0.07-0.46,0.21-0.41,0.26c-0.16-0.09,0.27-0.49,0.26-0.54c-0.09-0.3-0.24,0.19-0.56-0.07c-0.11-0.09,0.09-0.63,0.08-0.68
					c-0.01-0.03-0.17,0.03-0.16,0.07c0.01,0.08-0.12-0.23,0.08-0.27c-0.4,0.08-0.79,1-0.64,0.48c0.13-0.48-0.31-0.11-0.4,0
					c-0.05,0.07-0.28,1.07-0.24,0.61c0.07-0.84-0.01-0.19-0.16,0c-0.19,0.24-0.51-0.99-0.72-1.56c-0.08-0.22-0.5-1.5-0.24-0.61
					c0.15,0.52,0.35,1.07,0.48,1.56c0.02,0.08,0.01,0.45-0.24,0.07c-0.03-0.05-0.06-0.09-0.08-0.12c0.07,0.12,0.17,0.29,0.16,0.32
					c-0.1,0.4-0.36-0.5-0.48-0.48c-0.28,0.06,0.12,0.91,0.16,0.88c-0.07,0.05-0.58-0.98-0.4-0.41c0.02,0.07,0.53,0.79,0.63,0.97
					c0.02,0.02,0.02,0.03,0.02,0.05c0,0,0-0.02-0.02-0.05c-0.12-0.1-0.76-0.19-0.95-0.23c-0.7-0.13,0.44-0.27-0.56-0.34
					c0.01,0,0.28,0.46-0.32,0c-0.51-0.39,0.38,0.54,0.4,0.48c-0.07,0.19-1.06-0.77-0.72,0c0.1,0.23,0.65,0.59,0.56,0.75
					c0,0.01-0.34,0.08-0.56-0.14c-0.03-0.02,0.03-0.19,0-0.2c0,0-0.27,0.13-0.32,0.07c0.03,0.04,0.14-0.33,0.08-0.34
					c-0.03,0-0.47,0.33-0.48,0.27c0.03,0.11,0.45,0.01,0.64,0.27c0.08,0.12-0.24-0.04-0.16-0.07c-0.18,0.05,0.17,0.63-0.16,0.2
					c-0.34-0.45-0.14,0.22,0,0.2c-0.18,0.02-0.34-0.32-0.56-0.2c0.01,0,0.11,0.46,0.16,0.34c-0.11,0.28-0.78,0-0.4,0.34
					c0.06,0.06,0.06,0.27,0.16,0.34c-0.02-0.01,0.68-0.11,0.4,0.2c-0.02,0.02-1.93,0-1.12,0.14c0.98,0.16-0.94,0.59,0.08,0.41
					c1.08-0.19-0.4,0.24-0.32,0.41c0,0,1.06-0.19,1.04-0.2c0.1,0.09-0.21,0.53-0.16,0.68c0,0,0.07-0.06,0.11-0.1
					c0-0.13,0.03-0.19,0.05-0.03c0,0-0.02,0.01-0.05,0.03c-0.01,0.21,0.03,0.61,0.21,0.58c0.34-0.06-0.05-0.4,0.24-0.54
					c0.18-0.09,0.02,0.23,0.24,0.27c0.05,0.01,0.09-0.18,0.16-0.2c0.28-0.09,0.56,0.26,0.56,0.34c0,0.01-0.3-0.01-0.32,0
					c0.02-0.01-0.47,0.49,0,0.34c0.41-0.13,0.03,0,0,0.07c0,0,0.13,0.18,0.08,0.2c-0.25,0.1-0.82-0.14-1.12,0
					c0.04-0.02,0.17,0.08,0.22,0.14c0.19,0.03,0.5,0.09,0.5,0.06c0,0.11-0.72,0.32-0.72,0.48c0,0.08,0.71,0.02,0.64,0
					c0.07,0.02,0.11,0.19,0.16,0.2c0.16,0.03,0.31-0.09,0.4-0.07c0,0-0.09,0.13-0.08,0.14c0.11,0.02,0.1-0.14,0.19-0.19
					c-0.08-0.04-0.1-0.06,0.13-0.01c-0.06-0.01-0.1-0.01-0.13,0.01c0.11,0.06,0.35,0.17,0.29,0.26c-0.22,0.32-0.37-0.11-0.56,0.07
					c-0.1,0.09,0.51,0.26,0,0.41c-0.15,0.04-0.45-0.11-0.72-0.07c-0.13,0.02-0.04,0.09,0.09,0.11c0.12-0.03,0.33-0.06,0.31-0.05
					c-0.08,0.07-0.21,0.07-0.31,0.05c-0.05,0.01-0.09,0.02-0.09,0.02c-0.08,0.1,0.16,0.18,0.24,0.14c-0.24,0.13-0.19-0.05-0.4,0
					c0.05-0.01-0.62,0.45-0.57,0.45c0.03-0.01,0.06-0.03,0.09-0.04c-0.05,0.03-0.08,0.04-0.09,0.04c-0.35,0.16-0.98,0.29-0.15,0.5
					c0.8,0.2-0.26,0.03-0.53-0.08c-0.03,0.1-0.15,0.3-0.18,0.38c0.08,0.02,0.33,0.14,0.38,0.12c0.01-0.01,0.01-0.01,0.01-0.01
					c0,0.01,0,0.01-0.01,0.01c-0.08,0.08-0.64,0.58-0.47,0.67c-0.02-0.01,0.09,0.34,0.08,0.34c0,0-0.74-0.12-0.8-0.14
					c-0.15-0.05-0.31-0.29-0.4-0.27c-0.05,0.01,0.22,0.34,0.08,0.41c-0.03,0.01-0.42,0.03-0.56-0.14c-0.21-0.25,0.38-0.04,0.32,0
					c0.05-0.03-0.09-0.21-0.08-0.27c0.09-0.45,0.39,0.08,0.32-0.27c-0.04-0.19-0.31-0.04-0.33,0.08c0.02,0.05,0.03,0.08,0.01,0.06
					c-0.02-0.02-0.02-0.04-0.01-0.06c-0.06-0.15-0.23-0.51-0.23-0.48c-0.01-0.14,0.16,0.07,0.24,0c0.2-0.19-0.3-0.33-0.32-0.48
					c-0.02-0.12,0.27-0.12,0.24-0.2c-0.02-0.06-0.14-0.05-0.23-0.05c-0.03,0.05-0.06,0.07-0.09-0.01c0,0.01,0.04,0.01,0.09,0.01
					c0.04-0.07,0.08-0.21,0.12-0.24c-0.08-0.04-0.26-0.1-0.28-0.04c0.06-0.11,0.83-0.4,0.8-0.48c-0.08-0.24-0.68,0.15-0.72,0.14
					c-0.16-0.04,0.85-0.75,0.4-0.75c-0.07,0-1.15,0.97-0.4,0.2c0.67-0.68-0.2-0.15-0.32-0.27c-0.19-0.2,0.33-0.11,0.32-0.34
					c0-0.01-0.72,0.19-0.56,0.2c-0.36-0.04,0.25-0.14,0.16-0.27c-0.15-0.23-0.63,0.65-0.72-0.07c-0.01-0.04,0.12,0.09,0.16,0.16
					c0.05-0.09,0.26-0.32,0.31-0.36c-0.06-0.02-0.38-0.42-0.23-0.35c-0.25-0.12,0,0.1-0.32,0.2c-0.08,0.03,0.02-0.28-0.24-0.07
					c0.01,0.05,0,0.05-0.01,0.03c-0.04,0.07-0.22,0.15-0.01-0.02c-0.04-0.11-0.1-0.49,0.09-0.42c-0.3-0.1-0.21,0.35-0.58,0.29
					c-0.02,0-0.04-0.01-0.06-0.01c0.02,0.01,0.04,0.01,0.06,0.01c0.24,0.04-0.14-0.35-0.14-0.35c0.06-0.28,0.19,0.27,0.32,0.14
					c0.11-0.12-0.53-0.52-0.16-0.34c0.17,0.08,0.03-0.2,0.04-0.25c-0.02-0.03-0.04-0.06-0.04-0.09c-0.03-0.11,0.29-0.09,0.48-0.27
					c0.11-0.11-0.16-0.13-0.16-0.14c-0.05-0.23,0.48-0.21,0.32-0.27c-0.67-0.25-0.88,0.7-1.28,0.07c0.05,0.08,0.07-0.1,0.07-0.25
					c-0.04,0.05-0.07,0.09-0.07,0.11c0.04-0.45,0.07-0.3,0.07-0.11c0.12-0.13,0.33-0.29,0.33-0.29c-0.01,0.02-0.07-0.2-0.01-0.21
					c-0.19-0.04-0.46,0.55-0.55,0.27c-0.06-0.18,0.3-0.07,0.4-0.41c0.03-0.1-0.08-0.29-0.08-0.27c0.01-0.05,0.24-0.08,0.24-0.07
					c0-0.07-0.24-0.08-0.24-0.07c0.01-0.06,0.56-0.69,0.08-0.48c-0.04,0.02-0.44-0.14-0.4-0.34c0.04-0.19,0.6-0.08,0.56-0.27
					c-0.02-0.11-0.29-0.05-0.32,0c0.12-0.18,0.47-0.04,0.48-0.34c0.01-0.26-0.71,0.11-1.03,0.19c-0.01,0.01-0.04,0.02-0.1,0.01
					c0.02,0,0.06,0,0.1-0.01c0.06-0.06-0.46-0.29-0.39-0.37c-0.12,0.06-0.41,0.22-0.35,0.32c-0.24-0.41,0.66-0.6,0.72-0.95
					c0.06-0.31-0.34-0.7-0.48-0.2c-0.1,0.34-0.49,1.16-0.72,0.88c-0.17-0.2,0-0.31-0.32-0.34c-0.66-0.05,0.06-0.41,0-0.61
					c-0.04-0.13-0.28-0.14-0.35-0.07c-0.01,0.02-0.01,0.04-0.02,0.05c0,0.04,0.04,0.09,0.13,0.16c-0.25-0.17-0.17-0.06-0.16-0.2
					c0,0.06,0.01,0.07,0.03,0.04c0-0.02,0.01-0.03,0.02-0.05c0.03-0.09,0.05-0.26-0.05-0.27c-0.15-0.01-0.76,1.43-0.64,0.68
					c0.17-1.03,0.12-0.59-0.16,0.14C95.45,43.79,95.3,44,95.31,44c-0.15,0.01-0.05-0.54-0.16-0.68c-0.05-0.06-0.18,0.06-0.16,0.07
					c-0.09-0.01-0.06-0.09-0.06-0.14c-0.08,0.04-0.37,0.05-0.26-0.06c-0.21,0.24,0.15,0.14,0,0.41c0,0-0.13-0.37-0.24-0.2
					c-0.15,0.23,0.62,0.97,0.48,1.16c-0.03,0.04-0.75,0.01-0.88-0.07c-0.21-0.13-0.82-1.65-1.12-1.56c0,0,0.18,0.46,0.3,0.7
					c0.07,0.06,0.12,0.1,0.1-0.02c0.04,0.23-0.02,0.17-0.1,0.02c-0.08-0.07-0.17-0.18-0.22-0.15c-0.21,0.12,0.35,0.36,0.4,0.48
					c0.33,0.67-0.14-0.28-0.24-0.14c-0.15,0.21,0.72,0.84,0.72,1.02c0.01,0.41-0.25-0.31-0.48-0.14c-0.1,0.08,0.64,0.67,0.64,0.68
					c-0.01,0.07-0.57-0.15-0.61-0.2c-0.13-0.01-0.46-0.02-0.44,0.06c0.01,0.03,0.16,0.21,0.24,0.14c-0.17,0.14-0.5-0.09-0.56,0.07
					c-0.02,0.04,0.18,0.2,0.24,0.14c-0.08,0.08-0.17,0-0.16,0c-0.29,0.18-0.56,0.95-0.56,0.95c0.01,0.16,0.35,0.22-0.08,0.14
					c-0.44-0.09-0.06,0.23,0.08,0.2c-0.31,0.06-0.54-0.12-0.88-0.2c-0.38-0.1-1.2-0.37-1.29-0.34c-0.11,0.04,0.31,0.42,0.32,0.48
					c-0.01-0.04-0.32,0.01-0.32,0.14c0,0.01,0.38,0.37,0.4,0.27c-0.05,0.25-0.38-0.03-0.56,0.14c-0.19,0.17,0.82,0.12,0.64,0.2
					c-0.69,0.33,0.74-0.05,0.72-0.07c0.25,0.29-0.88,0.27-1.04,0.48c-0.05,0.07,0.34,0.24,0.32,0.31c0.17-0.07,0.25-0.24,0.48-0.18
					c-0.04-0.01-0.12,0.19-0.15,0.32c0.08-0.08,0.38-0.05,0.31-0.04c0.34,0,0.72-0.08,0.88-0.21c0.59-0.45,0.05,0.19-0.06,0.37
					c0.09-0.07,0.45,0.26,0.47,0.36c0.01,0.01,0.01,0.01,0,0.02c0.01,0,0.01-0.01,0-0.02c-0.04-0.04-0.32-0.04-0.57-0.04
					c-0.32,0.17-0.67,0.09-0.39,0.34c0.02,0.02,0.23,0.13,0.16,0.2c0.11-0.11-0.63,0.03-0.64,0c0.09,0.26,0.8,0.08,0,0.2
					c-0.33,0.05-0.27,0.16-0.14,0.17c0.17-0.07,0.3-0.15,0.14-0.04c-0.04,0.03-0.1,0.04-0.14,0.04c-0.15,0.06-0.32,0.12-0.34,0.05
					c0.01,0.09,0.13,0.12,0.25,0.13c0-0.04,0.01-0.05,0.02,0c0.11,0,0.21-0.01,0.21-0.01c-0.01,0.08-0.09,0.14-0.18,0.18
					c0,0.03,0.01,0.06,0.02,0.09c0.04,0.23-0.23,1.28,0.24,0.88c0.56-0.48,0.07,0.75,0,0.48c0.08,0.32,0.5,0.41,0.48,0.54
					c-0.01,0.13-0.7-0.3-0.48,0.2c0.19,0.45-0.2-0.15-0.4-0.07c-0.01,0-0.06,0.13-0.03,0.18c-0.08-0.09-0.16-0.42-0.38-0.39
					c-0.15,0.03,0.3,0.46,0,0.34c-0.05-0.02-0.09-0.15-0.16-0.14c-0.09,0.02-0.15,0.04-0.19,0.05c0.13-0.02,0.4-0.03,0.19,0.22
					c-0.04,0.05-0.19-0.05-0.16-0.07c-0.18,0.12-0.22,0.65-0.4,0.75c0.14-0.08-1.83-0.03-0.96,0.14c0.02,0,0.04,0.01,0.06,0.01
					c0.34-0.04,0.85,0.16,0,0c-0.1,0.01-0.19,0.05-0.22,0.12c-0.11,0.3,0.18-0.23,0.56,0c0.24,0.15-0.49,0.3-0.08,0.34
					c1,0.1-0.36,0.03-0.48,0.2c-0.12,0.16,0.32,0.16,0.53,0.14c0.01-0.05,0.05-0.08,0.11-0.01c0,0-0.05,0-0.11,0.01
					c-0.02,0.08,0.01,0.23,0.05,0.26c0.03-0.03,0.06-0.05,0.06-0.06c-0.02,0.06-0.04,0.08-0.06,0.06c-0.11,0.09-0.31,0.22-0.18,0.28
					c0.19,0.07,0.12-0.15,0.4-0.07c0.01,0-0.19,0.13-0.16,0.14c0.31,0.08,0.53-0.06,0.8,0.2c0.08,0.07-0.22-0.02-0.24,0.07
					c0.02-0.08,0.2,0.47,0.16,0.41c0.12,0.21,0.31,0.07,0.24,0.27c-0.03,0.1-0.51-0.04-0.56,0c-0.02,0.01,0.06,0.17,0.24,0.19
					c0.11-0.02,0.21-0.04,0.24-0.05c-0.09,0.05-0.17,0.06-0.24,0.05c-0.35,0.06-0.89,0.13-0.41,0.15c0.09,0,0.22,0.06,0.23,0.1
					c0.07-0.05,0.14-0.13,0.2-0.16c0-0.01,0.01-0.02,0.04-0.01c-0.01,0-0.03,0-0.04,0.01c0,0.05,0.29,0.25,0.28,0.26
					c0.01-0.01-0.86,0.09-0.88,0.2c-0.03,0.12,0.83-0.02,0.8,0.14c-0.02,0.14-1.13,0.55-1.41,0.43c0.07,0.05,0.22,0.13,0.36,0.11
					c0.07-0.01,0.12-0.04,0.16-0.07c-0.05,0.04-0.11,0.06-0.16,0.07c-0.29,0.06-0.74-0.01-0.72,0.14c0-0.01,0.4,0.09,0.4,0.07
					c-0.01,0.16-0.38,0.24-0.4,0.27c0.03-0.04,0.17,0.15,0.32,0.14c0.62-0.08,0.07,0.06,0.01,0.19c0.02-0.02,0.09,0.32-0.01,0.33
					c0.07,0.03,0.17,0.04,0.25-0.01c-0.17,0.14-0.5,0.15-0.49,0.31c0.01,0.12,0.54-0.19,0.64-0.2c-0.02,0-0.14,0.22-0.08,0.27
					c0.04,0.03,0.54-0.4,0.4-0.2c-0.03,0.04-0.06,0.07-0.09,0.11c0.02,0.04,0.07,0.15,0.12,0.26c0.09-0.05,0.19-0.11,0.21-0.1
					c0.11,0.06-0.04,0.16-0.15,0.22c0.08,0.16,0.17,0.28,0.22,0.21c-0.13,0.2-0.69-0.03-0.31,0.31c0.47,0.42-0.23-0.08-0.4,0.07
					c-0.04,0.03,0.15,0.18,0.24,0.14c-0.29,0.13-0.13,0.21-0.48,0.2c-0.95-0.02,0.1,0.05,0,0.27c-0.02,0.05-0.59-0.01-0.4-0.07
					c-0.27,0.07,0.09,0.06,0,0.27c-0.03,0.06-0.14,0.02-0.16,0.14c-0.06,0.29-0.41,0.44-0.72,0.48c0.08-0.01,0.26-0.17,0.24-0.2
					c0-0.01-0.29,0.06-0.32-0.07c-0.06-0.24-0.02-0.69-0.08-0.68c-0.2,0.05-0.1,0.88-0.48,0.88c-0.22,0-0.5-0.86-0.8-0.82
					c-0.45,0.06,0.16,0.23,0.24,0.48c0.01,0.02-0.44,0.06-0.16,0.27c0.03,0.02,0.21,0.03,0.24,0.06c-0.03-0.01-0.22,0.07-0.21,0.12
					c0.03,0.02,0.07,0.03,0.14,0.03c-0.1,0-0.14-0.01-0.14-0.03c-0.09-0.06-0.02-0.2-0.15-0.24c0.14,0.05-0.63,0.22-0.67,0.26
					c0.03-0.03,0.06,0.21,0.06,0.3c0.07,0.06,0.15,0.07,0.1,0.18c-0.19,0.42-0.52,0.1-0.08,0.41c0.33,0.23-0.1,0.06-0.08,0.27
					c0.01,0.14,0.24-0.1,0.24,0.14c0,0.11-0.3,0.08-0.32,0.2c-0.01,0.05,0.6,0.35,0.48,0.41c-0.6,0.29-0.81-0.69-1.12-0.82
					c0.02,0.01-0.23,0.1-0.24,0.07c-0.02-0.08,0.37-0.26,0.4-0.34c0.04-0.11-0.26-0.37-0.24-0.34c0,0-0.09-0.15-0.07-0.2
					c-0.08,0-0.21,0.01-0.29,0.05c-0.03,0.05-0.05,0.08-0.05,0.08c-0.01-0.04,0.01-0.07,0.05-0.08c0.1-0.17,0.31-0.56,0.19-0.6
					c-0.28-0.08-0.34,0.44-0.56,0.48c-0.31,0.04,0.21-0.24,0-0.41c-0.14-0.11-0.33,0.38-0.48,0.2c-0.1-0.12-0.04-0.92-0.32-0.95
					c-0.07-0.01-0.01,0.37,0.04,0.47c0.03-0.08,0.04-0.11,0.04-0.06c-0.01,0.09-0.02,0.1-0.04,0.06c-0.06,0.17-0.18,0.56-0.28,0.62
					c-0.15,0.1-0.21-0.14-0.15-0.2c-0.19-0.01-0.68-0.07-0.65-0.07c-0.03,0,0.05,0.18,0.16,0.14c-0.05,0.02-0.31,0.16-0.34,0.2
					c0.04,0,0.08,0.01,0.09,0c-0.08,0.02-0.11,0.02-0.09,0c-0.27-0.03-0.9-0.21-0.63,0.14c0.15,0.19,0.73,0.24,0,0.34
					c-0.1,0.01-0.52,0.13-0.08,0.2c0.1,0.02,0.2,0,0.28,0.03c0.07-0.07,0.13-0.04,0.12,0.25c0.01-0.16-0.04-0.22-0.12-0.25
					c-0.12,0.12-0.28,0.54-0.15,0.46c-0.21,0.14-0.95,0.38-0.86,0.05c0.01-0.04,0.18,0.01,0.27,0.05c0.05-0.08,0.38-0.29,0.37-0.25
					c0.01-0.34-0.57-0.31-0.71-0.46c0.09,0.08,0.37-0.05,0.39-0.15c0.05-0.32-1.17,0.48-0.64-0.34c0.45-0.71-0.13-0.02-0.08,0
					c-0.37-0.17,0.27-0.09,0.08-0.34c-0.1-0.13-0.67,0.41-0.72,0.68c-0.01,0.04,0.16,0.41,0,0.48c0.15-0.06-0.96-0.25-0.96-0.48
					c0-0.2,0.38,0.12,0.72-0.14c0.05-0.04-0.05-0.15-0.08-0.14c0.03-0.02,0.26-0.09,0.24,0.07c0.03-0.33-0.45-0.12-0.08-0.34
					c0,0,0.63-0.75,0.64-0.75c-0.09-0.05-0.56,0.12-0.56,0.14c-0.03-0.32,0.17-0.14,0.56-0.2c0.01,0-0.01-0.17-0.08-0.14
					c0.59-0.25,0.09-0.03-0.24-0.34c-0.03-0.03-0.31,0.03-0.32,0c-0.03-0.06,1.08-0.44,0.56-0.54c-0.2-0.04-0.27,0.16-0.32,0.14
					c-0.01-0.01-0.14-0.3-0.24-0.34c-0.26-0.1-0.34,0.21-0.4,0.07c-0.12-0.25,0.7-1.13,0-0.48c-0.51,0.48-0.28-0.02-0.56-0.34
					c-0.56-0.63,0.03,0.07,0,0.48c0,0-0.23-0.15-0.24-0.14c-0.13,0.14,0.2,0.63-0.24,0.48c0.05,0.02-0.21-0.77-0.32-0.88
					c0,0-0.28-0.11-0.34-0.17c-0.07,0.1-0.3,0.38-0.3,0.31c0,0.08,0,0.13,0.01,0.18c0.16,0.08,0.04,0.24,0,0
					c-0.04-0.02-0.09-0.04-0.17-0.04c-0.23-0.01,0.31,0.48,0.32,0.41c-0.03,0.21-0.53,0.2-0.72,0.14c-0.04-0.01-0.77-0.6-0.56-0.27
					c0.08,0.12,0.13,0.3-0.08,0.27c-0.12-0.01-0.48-0.22-0.16,0.07c0.5,0.45-0.08-0.08-0.16-0.07c-0.34,0.04,0.39,0.53,0.4,0.41
					c-0.04,0.36-0.46-0.08-0.56,0.14c-0.06,0.13,0.7,0.45,0.56,0.27c0.13,0.16-0.14,0.32-0.08,0.14c-0.09,0.25,0.13,0.38,0.08,0.54
					c-0.04,0.11-0.4,0.12-0.48,0.2c-0.02,0.02,0.12,0.17,0.16,0.14c-0.18,0.13-0.76-0.1-0.4,0.2c0.21,0.18-0.36,0.46-0.08,0.41
					c0.17-0.03,0.26,0.25,0.16,0.41c-0.03,0.05-0.26,0.06-0.24,0.14c0.06,0.23,0.6-0.41,0.32,0c-0.07,0.1-0.45,0.33-0.59,0.34
					c0.14,0.11,0.53,0.26,0.52,0.17c0-0.01,0-0.02-0.01-0.03c0.01,0.01,0.01,0.02,0.01,0.03c0.04,0.2-0.61,0.47-0.57,0.58
					c0.1,0.3,0.62-0.16,0.8-0.07c0.36,0.19-0.35,0.25-0.32,0.2c-0.11,0.18,0.35,0.16,0.24,0.34c0.01-0.02-0.43,0.09-0.4,0.14
					c0.16,0.29,0.41,0,0.47,0c-0.02,0.02,0.07,0.29,0.09,0.28c0-0.04,0-0.07,0-0.07c0.01,0.05,0.01,0.07,0,0.07
					c0,0.18-0.01,0.62-0.08,0.61c-0.38-0.04-0.22-0.49-0.56-0.61c0.11,0.04-0.4,0.06-0.4,0.07c-0.2,0.28,0.36,0.12,0.24,0.34
					c-0.05,0.09-0.09,0.12-0.13,0.12c0.13,0.08,0.29,0.14,0.35,0.15c0.01-0.01,0.02-0.01,0.02,0c0,0.01-0.01,0.01-0.02,0
					c-0.07,0.06-0.25,0.5-0.38,0.61c-0.14,0.11-0.5,0.17-0.56,0.27c-0.13,0.22,0.34,0.07,0.16,0.27c-0.28,0.32-0.69-0.04-0.48,0.27
					c0.05,0.08,0.23-0.09,0.24-0.13c-0.03,0-0.04-0.01,0-0.01c0,0,0,0,0,0.01c0.11,0.01,0.56,0.04,0.5,0
					c0.29,0.11,0.49,0.4,0.54,0.6c0.03,0.12-0.24,0.01-0.24,0c0,0.07,0.29,0.34,0.08,0.54c-0.02,0.02-0.27-0.13-0.24-0.14
					c-0.07,0.02-0.06,0.2-0.08,0.2c-0.14,0.03-0.77-0.22-0.8-0.2c-0.21,0.14,0.35,0.08,0,0.2c-0.2,0.07-0.47,0.44-0.32,0.75
					c0.02,0.05,0.17-0.04,0.16-0.07c0,0.01-0.06,0.18-0.08,0.14c0.01,0.02,0.24,0.11,0.24,0.07c-0.01,0.1-0.35,0.49-0.32,0.54
					c0.14,0.3-0.08-0.11,0.24-0.14c0.29-0.02,0.32,0.26,0.24,0.27c0.1-0.02,0.42-0.28,0.32-0.34c0.32,0.19-0.37,0.72,0.16,0.34
					c0.08-0.06,0.12-0.02,0.24-0.07c0.21-0.08,0.22-0.52,0.48-0.48c0.25,0.04,0.23,0.58,0.4,0.54c0.02,0,0-0.07-0.02-0.15
					c-0.03-0.01-0.03-0.01,0,0c-0.05-0.21-0.15-0.53,0.1-0.12c-0.03-0.05,0.01,0.05,0.04,0.16c0.01,0,0.03,0.01,0.04,0.01
					c0.04,0.01,0.09,0.02,0.15,0.04c0.07-0.19,0.11-0.5,0.33-0.54c0.01,0,0.57,0.55,0.56,0.48c0.03,0.2-0.06,0.24-0.17,0.26
					c0.1,0.03,0.21,0.05,0.33,0.08c-0.02,0-0.03,0.02-0.06,0.05c0.23,0.09,0.38,0.17,0.3,0.22c-0.24,0.13-0.63-0.11-1.12,0
					c-0.2,0.04-0.44,0.32-0.56,0.34c-0.3,0.04-0.66-0.28-0.8-0.27c-0.01,0-1.03,0.41-1.12,0.54c0-0.01,0.04,0.84,0.08,1.16
					c0.03,0.24,0.13-0.45,0.16-0.14c0.01,0.07,0.01,0.12,0,0.17c0.02-0.01,0.05-0.02,0.08-0.03c-0.11,0.04,0.29,0.3,0.16,0.07
					c0.16,0.28-0.01-0.04-0.16,0.2c-0.06,0.1,0.14,0.16,0.08,0.27c-0.03,0.07-0.22,0.01-0.24,0.14c-0.01,0.04,0.15,0.09,0.16,0.07
					c-0.17,0.33-0.07-0.21-0.32,0c-0.06,0.05,0.24,0.32,0.24,0.34c0.01,0.14-0.63,0.42-0.79,0.72c0.03-0.04-0.04,0.32-0.08,0.42
					c0.06-0.03,0.22-0.06,0.22-0.05c0.01,0.15-0.24,0.21-0.24,0.2c0,0.1,0.31-0.06,0.32,0c0.01,0.04-0.28,0.18-0.24,0.27
					c0.01,0.02,0.24,0.11,0.24,0.07c-0.01,0.12-0.55,0.35-0.24,0.54c0.04,0.03,0.35-0.07,0.32-0.14c0.09,0.21-0.21,0.34-0.16,0.48
					c0.06,0.18,0.58-0.01,0.48,0.34c0,0.02-0.16-0.09-0.17-0.12c-0.05,0.07-0.41,0.49-0.8,0.4c-0.38-0.1-0.18-1.26-0.56-1.22
					c-0.12,0.01-0.55-0.04-0.64,0c-0.07,0.03-0.14,0.4-0.24,0.48c-0.02,0.01-0.55,0.2-0.48,0.2c-0.25-0.03-0.03-0.21-0.24-0.34
					c-0.21-0.14-0.18,0.16-0.4,0.07c0,0-0.24-0.54-0.4-0.2c-0.01,0.02,0.14,0.15,0.08,0.2c-0.15,0.13-0.51-0.06-0.32,0.2
					c0.32,0.47-1.16,0.06-1.37,0.27c0.01-0.01-0.02,0.45-0.08,0.75c-0.04,0.21-0.17,0.54-0.16,0.48c-0.06,0.33,0.33,0.19,0.08,0.34
					c-0.49,0.29-0.04-0.21-0.24-0.27c-0.2-0.06-0.12,0.22-0.4,0.2c-0.09,0,0.01-0.2-0.16-0.27c0.15,0.06-0.39,0.09-0.16,0
					c-0.57,0.23-0.04,0.28-0.16,0.48c-0.03,0.05-0.49,0.27-0.48,0.27c-0.12-0.08,0.15-0.77-0.16-0.88c-0.34-0.13-0.06,0.14-0.24,0.2
					c-0.25,0.09-0.53,0.06-0.62,0.19c0.08,0.31,0.14,0.55,0.14,0.55c-0.38,0.33-0.91-0.13-1.12,0.27c0.02-0.05,0.24,0.29,0,0.27
					c0.09,0.01-0.25-0.35-0.24-0.27c-0.03-0.21,0.42-0.41,0-0.61c-0.11-0.05-0.19,0.1-0.32,0.07c-0.19-0.05-0.03-0.33-0.4-0.2
					c-0.04,0.01-0.14,0.55-0.32,0.61c-0.68,0.23-1.36-0.79-2.41-1.43c-0.18-0.11-0.42-0.1-0.56-0.2c-0.25-0.19-0.39-0.5-0.64-0.68
					c-0.82-0.57-1.91-0.7-2.65-1.16c-0.27-0.17-0.49-0.57-0.88-0.75c-0.16-0.07-0.39-0.01-0.56-0.07c-0.36-0.12-0.53-0.46-0.72-0.54
					c-0.11-0.05-0.36,0.03-0.48,0c-0.19-0.05-1.5-0.58-1.77-0.75c-0.13-0.08-0.18-0.33-0.32-0.41c-0.07-0.04-0.3,0.03-0.56-0.07
					c-0.41-0.15-0.72-0.66-1.28-0.68c-0.29-0.01-0.79,0.26-1.45,0.2c-1.83-0.15-3.84-1.36-4.74-2.17c-0.16-0.15-0.22-0.42-0.4-0.54
					c-0.08-0.06-0.42-0.03-0.56-0.14c-0.55-0.44-1.36-1.41-2.25-1.56c-0.13-0.02-0.35,0.04-0.48,0c-0.47-0.13-0.82-0.54-1.29-0.68
					c-0.07-0.02-0.83-0.19-0.72-0.2c-0.22,0.02-0.32,0.33-0.48,0.34c-0.2,0.01-0.27-0.23-0.4-0.2c-0.36,0.06-0.43,0.53-1.04,0.2
					c-0.65-0.35-1.1-1.42-1.61-1.83c-0.07-0.06-0.28,0-0.4-0.07c-0.16-0.09-0.21-0.39-0.24-0.41c-0.1-0.06-0.21,0.13-0.32,0.07
					c-0.03-0.01-0.06-0.27-0.08-0.27c-0.27-0.04-0.4,0.22-0.56,0.14c-0.18-0.09-0.15-0.43-0.32-0.54c-0.23-0.15-0.69-0.06-0.96-0.2
					c-0.08-0.04-0.09-0.31-0.24-0.41c-0.14-0.09-0.38-0.05-0.4-0.07c-0.38-0.32-0.28-0.58-0.96-0.75c-0.15-0.04-0.26,0.08-0.4,0.07
					c-0.39-0.03-1.13-0.34-1.77-0.41c-0.31-0.03-0.7,0.09-0.96,0c-0.35-0.12-0.5-0.81-1.29-0.54c-0.47,0.16-0.92,1.03-1.53,1.02
					c-0.06,0-0.29-0.17-0.25-0.2c-0.09,0.03-0.26,0.24-0.47,0.27c-0.05,0.01-0.15-0.11-0.24-0.07c-0.48,0.22-0.89,0.86-1.45,0.82
					c-0.05,0-0.22-0.2-0.16-0.2c-0.66,0.09-0.85,0.57-1.77,0.41c-0.08-0.01-0.26-0.13-0.24-0.14c-0.11,0.01-0.2,0.21-0.32,0.2
					c-0.31-0.01-0.62-0.23-0.96-0.2c-0.07,0-0.94,0.44-1.2,0.41c-0.23-0.03-0.35-0.28-0.56-0.41c-0.65-0.38-1.81-0.9-2.41-1.56
					c-0.18-0.2-0.22-0.54-0.4-0.82c-0.22-0.34-0.64-0.58-0.88-0.88c-0.07-0.08-0.05-0.32-0.16-0.41c-0.08-0.06-0.22,0.11-0.32,0.07
					c-0.69-0.3-0.82-1.57-1.85-1.63c-0.22-0.01-0.39,0.25-0.64,0.27c-0.32,0.03-1.19-0.38-1.45-0.34c-0.21,0.03-0.57,0.36-0.72,0.48
					c-0.28,0.21-0.56,0.68-0.88,0.82c-0.09,0.04-0.14-0.14-0.32-0.14c-0.12,0.01-0.95,0.33-1.2,0.27c-0.36-0.08-0.36-0.47-0.64-0.54
					c-0.2-0.05-0.34,0.13-0.48,0.07c-0.52-0.23-0.58-0.8-0.96-1.02c-0.34-0.2-0.88,0.1-1.37,0.07C0.96,56.88,0.39,56.24,0,56.07V85
					H120z"/>
				<path class="st5" d="M88.75,58.22c0.02-0.02,0.04-0.05,0.05-0.08C88.79,58.17,88.78,58.2,88.75,58.22z"/>
				<path class="st5" d="M99.57,47.94c-0.15-0.17-0.19-0.21-0.2-0.18C99.54,48.03,100.09,48.56,99.57,47.94z"/>
			</g>
		</g>
	</g>
	<g>
		<path class="st6" d="M39.53,27.06c-0.07-0.17-0.16-0.25-0.27-0.31c-0.11-0.06-0.24-0.1-0.38-0.14c-0.14-0.04-0.28-0.08-0.43-0.13
			c-0.15-0.05-0.3-0.1-0.46-0.19c0.16-0.08,0.33-0.12,0.5-0.13c0.17-0.01,0.34,0.01,0.51,0.06c0.17,0.05,0.34,0.14,0.47,0.29
			c0.06,0.08,0.11,0.17,0.13,0.27C39.6,26.89,39.58,26.99,39.53,27.06z"/>
		<path class="st6" d="M39.58,27.09c-0.09-0.19-0.05-0.44,0.08-0.63c0.12-0.19,0.31-0.33,0.5-0.42c0.2-0.09,0.41-0.13,0.62-0.12
			c0.21,0.01,0.42,0.05,0.59,0.18c-0.2,0.04-0.38,0.08-0.56,0.14c-0.17,0.05-0.34,0.11-0.49,0.18c-0.16,0.07-0.3,0.15-0.43,0.25
			C39.77,26.76,39.66,26.9,39.58,27.09z"/>
	</g>
	<g>
		<path class="st6" d="M49.2,20.47c-0.03-0.09-0.08-0.12-0.14-0.15c-0.06-0.03-0.12-0.05-0.19-0.07c-0.07-0.02-0.14-0.04-0.21-0.07
			c-0.07-0.02-0.15-0.05-0.23-0.09c0.08-0.04,0.16-0.06,0.25-0.06c0.08,0,0.17,0,0.25,0.03c0.08,0.03,0.17,0.07,0.23,0.14
			c0.03,0.04,0.06,0.09,0.06,0.13C49.23,20.38,49.22,20.43,49.2,20.47z"/>
		<path class="st6" d="M49.22,20.48c-0.04-0.1-0.02-0.22,0.04-0.31c0.06-0.09,0.15-0.16,0.25-0.21c0.1-0.04,0.2-0.06,0.31-0.06
			c0.1,0,0.21,0.03,0.29,0.09c-0.1,0.02-0.19,0.04-0.27,0.07c-0.09,0.03-0.17,0.05-0.24,0.09c-0.08,0.03-0.15,0.07-0.21,0.12
			C49.32,20.32,49.26,20.39,49.22,20.48z"/>
	</g>
	<g>
		<path class="st6" d="M54.66,25.92c-0.15-0.13-0.3-0.25-0.45-0.35c-0.16-0.1-0.32-0.19-0.5-0.25c-0.17-0.06-0.35-0.1-0.54-0.11
			c-0.19-0.01-0.37,0.01-0.56,0.06c0.16-0.11,0.36-0.17,0.56-0.19c0.2-0.02,0.41,0.01,0.6,0.08c0.19,0.07,0.37,0.17,0.52,0.3
			C54.44,25.59,54.57,25.75,54.66,25.92z"/>
		<path class="st6" d="M54.66,25.92c0.01-0.19,0.07-0.39,0.19-0.55c0.11-0.17,0.28-0.3,0.46-0.39c0.18-0.09,0.38-0.14,0.57-0.15
			c0.19-0.02,0.39-0.01,0.58,0.02c-0.19,0.04-0.38,0.07-0.56,0.11c-0.18,0.04-0.35,0.1-0.52,0.17c-0.16,0.08-0.31,0.18-0.43,0.31
			C54.83,25.59,54.74,25.75,54.66,25.92z"/>
	</g>
	<g>
		<path class="st6" d="M41.92,19.85c-0.02-0.17-0.04-0.33-0.07-0.48c-0.04-0.15-0.09-0.29-0.16-0.42c-0.07-0.13-0.16-0.24-0.27-0.33
			c-0.11-0.09-0.24-0.16-0.38-0.22c0.16-0.01,0.32,0.03,0.46,0.11c0.13,0.08,0.24,0.2,0.32,0.34c0.08,0.14,0.12,0.3,0.14,0.47
			C41.98,19.5,41.97,19.68,41.92,19.85z"/>
		<path class="st6" d="M41.92,19.85c0.12-0.14,0.27-0.27,0.44-0.34c0.17-0.08,0.34-0.1,0.5-0.09c0.16,0.02,0.31,0.07,0.44,0.14
			c0.13,0.08,0.24,0.17,0.34,0.29c-0.14-0.06-0.27-0.12-0.4-0.17c-0.13-0.05-0.27-0.09-0.42-0.1c-0.14-0.01-0.29,0-0.44,0.05
			C42.23,19.67,42.08,19.76,41.92,19.85z"/>
	</g>
	<path class="st6" d="M45.52,23.63c-0.12,0.1-0.21,0.22-0.28,0.35c-0.04,0.08-0.07,0.17-0.1,0.26c-0.03-0.07-0.06-0.14-0.1-0.2
		c-0.13-0.22-0.31-0.4-0.51-0.55c-0.2-0.14-0.43-0.25-0.67-0.31c-0.24-0.06-0.5-0.08-0.73,0c0.23,0.08,0.43,0.17,0.63,0.28
		c0.2,0.1,0.38,0.22,0.56,0.34c0.18,0.13,0.34,0.26,0.5,0.42c0.11,0.12,0.21,0.24,0.3,0.39c0.01,0.08,0.02,0.16,0.05,0.24
		c0.1-0.12,0.17-0.24,0.24-0.35c0.07-0.12,0.12-0.23,0.18-0.34l0.17-0.33c0.06-0.11,0.12-0.23,0.18-0.38
		C45.78,23.46,45.64,23.53,45.52,23.63z"/>
	<path class="st6" d="M57.32,20.64c-0.04,0.04-0.08,0.08-0.11,0.13c-0.02,0.03-0.03,0.07-0.04,0.1c-0.01-0.03-0.02-0.05-0.04-0.08
		c-0.05-0.08-0.12-0.15-0.19-0.21c-0.08-0.05-0.16-0.09-0.25-0.12c-0.09-0.02-0.19-0.03-0.28,0c0.09,0.03,0.16,0.07,0.24,0.11
		c0.07,0.04,0.14,0.08,0.21,0.13c0.07,0.05,0.13,0.1,0.19,0.16c0.04,0.04,0.08,0.09,0.11,0.15c0,0.03,0.01,0.06,0.02,0.09
		c0.04-0.04,0.07-0.09,0.09-0.13c0.02-0.04,0.05-0.09,0.07-0.13l0.06-0.13c0.02-0.04,0.05-0.09,0.07-0.14
		C57.42,20.58,57.37,20.61,57.32,20.64z"/>
	<path class="st6" d="M58.49,17.79c-0.08,0.06-0.15,0.13-0.21,0.22c-0.04,0.06-0.08,0.12-0.11,0.19c-0.04-0.21-0.14-0.41-0.29-0.57
		c-0.24-0.27-0.59-0.42-0.93-0.41c0.15,0.08,0.3,0.15,0.43,0.24c0.13,0.09,0.25,0.19,0.35,0.3c0.1,0.11,0.19,0.24,0.26,0.38
		c0.04,0.09,0.08,0.18,0.12,0.27c-0.01,0.06,0,0.13,0.01,0.19c0.01-0.02,0.02-0.04,0.03-0.06c0.01,0.02,0.01,0.04,0.02,0.06
		c0.01-0.04,0.01-0.07,0.01-0.11c0.03-0.05,0.06-0.1,0.09-0.14c0.05-0.08,0.11-0.15,0.16-0.22c0.06-0.07,0.11-0.15,0.17-0.23
		c0.05-0.08,0.1-0.17,0.13-0.27C58.64,17.67,58.56,17.73,58.49,17.79z"/>
	<path class="st6" d="M59.93,29.93c-0.06,0.09-0.11,0.18-0.15,0.28c-0.03,0.07-0.04,0.14-0.05,0.21c-0.12-0.15-0.3-0.27-0.52-0.33
		c-0.36-0.1-0.8-0.05-1.16,0.13c0.19-0.01,0.38-0.02,0.55-0.02c0.18,0.01,0.34,0.03,0.5,0.07c0.15,0.04,0.3,0.1,0.43,0.18
		c0.08,0.05,0.15,0.1,0.23,0.16c0.02,0.05,0.04,0.1,0.08,0.15c0.01-0.02,0.01-0.04,0.01-0.06c0.01,0.01,0.03,0.02,0.04,0.04
		c-0.01-0.03-0.02-0.06-0.03-0.09c0.01-0.05,0.03-0.11,0.04-0.16c0.03-0.09,0.06-0.17,0.09-0.26c0.03-0.09,0.07-0.18,0.09-0.27
		c0.03-0.09,0.05-0.19,0.04-0.29C60.06,29.75,59.99,29.84,59.93,29.93z"/>
	<path class="st6" d="M47.69,16.68c-0.04,0.06-0.08,0.13-0.1,0.19c-0.02,0.05-0.03,0.1-0.03,0.14c-0.08-0.1-0.21-0.18-0.36-0.23
		c-0.25-0.07-0.55-0.03-0.8,0.09c0.13-0.01,0.26-0.02,0.38-0.01c0.12,0,0.24,0.02,0.34,0.05c0.11,0.03,0.21,0.07,0.3,0.13
		c0.05,0.03,0.11,0.07,0.16,0.11c0.01,0.04,0.03,0.07,0.06,0.1c0-0.01,0.01-0.03,0.01-0.04c0.01,0.01,0.02,0.02,0.03,0.02
		c0-0.02-0.01-0.04-0.02-0.06c0.01-0.04,0.02-0.07,0.03-0.11c0.02-0.06,0.04-0.12,0.06-0.18c0.02-0.06,0.05-0.12,0.07-0.19
		c0.02-0.06,0.03-0.13,0.03-0.2C47.78,16.56,47.73,16.62,47.69,16.68z"/>
</g>
</svg>
